<svg font-weight="400" font-family="Arvo" viewBox="0 0 1706 719" version="1.1" xml:space="preserve" xmlns="http://www.w3.org/2000/svg" data-server-rendered="true" class="gantt-container gantt-svg"><rect rx="0" fill="#D4D4D4" width="1706" height="719"></rect> <g id="vertical_lanes" transform="translate(47, 0)"></g> <g id="horizontal_lanes" transform="translate(0, 222.2)"><g id="horizontalLane_pozgQbw2Y"><rect stroke-width="1" stroke="#4A4A4A" height="150" x="-1" y="0" width="1708" fill="#D4D4D4"></rect> <text id="horizontal_lane_text_pozgQbw2Y" text-anchor="middle" font-weight="400" font-size="15" fill="#4A4A4A" y="25" x="-75" transform="rotate(-90)"> </text></g><g id="horizontalLane__2cTaTZKA"><rect stroke-width="1" stroke="#4A4A4A" height="120" x="-1" y="360" width="1708" fill="#D4D4D4"></rect> <text id="horizontal_lane_text__2cTaTZKA" text-anchor="middle" font-weight="400" font-size="15" fill="#4A4A4A" y="25" x="-420" transform="rotate(-90)"></text></g></g> <g id="milestones" transform="translate(517, 0)"><g id="milestone_mCVlJlaYW" overflow="auto" transform="translate(5.964285714285714 108.1)" class="drag-all-directions"><!----> <!----> <!----> <!----> <rect x="-0.5" width="1" y="-1" fill="#4A4A4A" height="23"></rect> <text y="38.6" font-size="12" fill="#4A4A4A" font-weight="400" text-anchor="middle">04/01/2020</text> <text font-weight="600" x="0" y="56.6" font-size="15" fill="#4A4A4A" text-anchor="middle" style="white-space:pre;">Project Dev Start</text></g><g id="milestone_zwn7etRji" overflow="auto" transform="translate(1007.9642857142858 108.1)" class="drag-all-directions"><!----> <!----> <!----> <!----> <rect x="-0.5" width="1" y="-1" fill="#4A4A4A" height="66"></rect> <text y="81.6" font-size="12" fill="#4A4A4A" font-weight="400" text-anchor="middle">06/24/2020</text> <text font-weight="600" x="0" y="99.6" font-size="15" fill="#4A4A4A" text-anchor="middle" style="white-space:pre;">Public Presentation</text></g><g id="milestone_ODrsDe_Wj" overflow="auto" transform="translate(1007.9642857142858 20)" class="drag-all-directions"><!----> <!----> <!----> <!----> <rect x="-0.5" width="1" y="36.1" fill="#4A4A4A" height="20"></rect> <text y="29.1" font-size="12" fill="#4A4A4A" font-weight="400" text-anchor="middle">06/24/2020</text> <text font-weight="600" x="0" y="13.5" font-size="15" fill="#4A4A4A" text-anchor="middle" style="white-space:pre;">Defense</text></g><g id="milestone_jBVwcipr_" overflow="auto" transform="translate(220.67857142857144 108.1)" class="drag-all-directions"><!----> <!----> <!----> <!----> <rect x="-0.5" width="1" y="-1" fill="#4A4A4A" height="0"></rect> <text y="15.600000000000001" font-size="12" fill="#4A4A4A" font-weight="400" text-anchor="middle">04/19/2020</text> <text font-weight="600" x="0" y="33.6" font-size="15" fill="#4A4A4A" text-anchor="middle" style="white-space:pre;">End of Sem</text></g><g id="milestone_z8jY0pFCo" overflow="auto" transform="translate(590.4642857142858 108.1)" class="drag-all-directions"><!----> <!----> <!----> <!----> <rect x="-0.5" width="1" y="-1" fill="#4A4A4A" height="0"></rect> <text y="15.600000000000001" font-size="12" fill="#4A4A4A" font-weight="400" text-anchor="middle">05/20/2020</text> <text font-weight="600" x="0" y="33.6" font-size="15" fill="#4A4A4A" text-anchor="middle" style="white-space:pre;">Start of Sem</text></g><g id="milestone_Hr9geXEtR" overflow="auto" transform="translate(757.4642857142858 20)" class="drag-all-directions"><!----> <!----> <!----> <!----> <rect x="-0.5" width="1" y="36.1" fill="#4A4A4A" height="20"></rect> <text y="29.1" font-size="12" fill="#4A4A4A" font-weight="400" text-anchor="middle">06/03/2020</text> <text font-weight="600" x="0" y="13.5" font-size="15" fill="#4A4A4A" text-anchor="middle" style="white-space:pre;">Update Presentation</text></g><g id="milestone_7vgar0kFL" overflow="auto" transform="translate(924.4642857142858 108.1)" class="drag-all-directions"><!----> <!----> <!----> <!----> <rect x="-0.5" width="1" y="-1" fill="#4A4A4A" height="1"></rect> <text y="16.6" font-size="12" fill="#4A4A4A" font-weight="400" text-anchor="middle">06/17/2020</text> <text font-weight="600" x="0" y="34.6" font-size="15" fill="#4A4A4A" text-anchor="middle" style="white-space:pre;">Final Report</text></g></g> <g id="timeline" transform="translate(47, 75)"><g transform="translate(470)"><!----> <!----></g><g transform="translate(470)"><!----> <!----></g><g transform="translate(470)"><!----> <!----></g><g transform="translate(470)"><!----> <!----></g><g transform="translate(470)"><!----> <!----></g><g transform="translate(470)"><!----> <!----></g><g transform="translate(470)"><!----> <!----></g><g transform="translate(470)"><!----> <!----></g><g transform="translate(470)"><!----> <!----></g><g transform="translate(470)"><!----> <!----></g><g transform="translate(470)"><!----> <!----></g><g transform="translate(470)"><!----> <!----></g><g transform="translate(470)"><!----> <!----></g><g transform="translate(470)"><!----> <!----></g> <path d="M7,0 h1155 a7,7 0 0 1 7,7 v19 a7,7 0 0 1 -7,7 h-1155 a7,7 0 0 1 -7,-7 v-19 a7,7 0 0 1 7,-7 z" fill="#000000" transform="translate(470)"></path> <g transform="translate(470)"><text font-weight="600" font-size="18" fill="#9C9C9C" text-anchor="middle" width="83.5" y="17" x="41.75" dy=".35em">1</text></g><g transform="translate(470)"><text font-weight="600" font-size="18" fill="#9C9C9C" text-anchor="middle" width="83.5" y="17" x="125.25" dy=".35em">2</text></g><g transform="translate(470)"><text font-weight="600" font-size="18" fill="#9C9C9C" text-anchor="middle" width="83.5" y="17" x="208.75" dy=".35em">3</text></g><g transform="translate(470)"><text font-weight="600" font-size="18" fill="#9C9C9C" text-anchor="middle" width="83.5" y="17" x="292.25" dy=".35em">4</text></g><g transform="translate(470)"><text font-weight="600" font-size="18" fill="#9C9C9C" text-anchor="middle" width="83.5" y="17" x="375.75" dy=".35em">5</text></g><g transform="translate(470)"><text font-weight="600" font-size="18" fill="#9C9C9C" text-anchor="middle" width="83.5" y="17" x="459.25" dy=".35em">6</text></g><g transform="translate(470)"><text font-weight="600" font-size="18" fill="#9C9C9C" text-anchor="middle" width="83.5" y="17" x="542.75" dy=".35em">7</text></g><g transform="translate(470)"><text font-weight="600" font-size="18" fill="#9C9C9C" text-anchor="middle" width="83.5" y="17" x="626.25" dy=".35em">8</text></g><g transform="translate(470)"><text font-weight="600" font-size="18" fill="#9C9C9C" text-anchor="middle" width="83.5" y="17" x="709.75" dy=".35em">9</text></g><g transform="translate(470)"><text font-weight="600" font-size="18" fill="#9C9C9C" text-anchor="middle" width="83.5" y="17" x="793.25" dy=".35em">10</text></g><g transform="translate(470)"><text font-weight="600" font-size="18" fill="#9C9C9C" text-anchor="middle" width="83.5" y="17" x="876.75" dy=".35em">11</text></g><g transform="translate(470)"><text font-weight="600" font-size="18" fill="#9C9C9C" text-anchor="middle" width="83.5" y="17" x="960.25" dy=".35em">12</text></g><g transform="translate(470)"><text font-weight="600" font-size="18" fill="#9C9C9C" text-anchor="middle" width="83.5" y="17" x="1043.75" dy=".35em">13</text></g><g transform="translate(470)"><text font-weight="600" font-size="18" fill="#9C9C9C" text-anchor="middle" width="83.5" y="17" x="1127.25" dy=".35em">14</text></g> <!----> <!----> <!----><rect transform="translate(470)" fill="#40372F" rx="2" width="2" height="17" x="82.5" y="8"></rect><rect transform="translate(470)" fill="#40372F" rx="2" width="2" height="17" x="166" y="8"></rect><rect transform="translate(470)" fill="#40372F" rx="2" width="2" height="17" x="249.5" y="8"></rect><rect transform="translate(470)" fill="#40372F" rx="2" width="2" height="17" x="333" y="8"></rect><rect transform="translate(470)" fill="#40372F" rx="2" width="2" height="17" x="416.5" y="8"></rect><rect transform="translate(470)" fill="#40372F" rx="2" width="2" height="17" x="500" y="8"></rect><rect transform="translate(470)" fill="#40372F" rx="2" width="2" height="17" x="583.5" y="8"></rect><rect transform="translate(470)" fill="#40372F" rx="2" width="2" height="17" x="667" y="8"></rect><rect transform="translate(470)" fill="#40372F" rx="2" width="2" height="17" x="750.5" y="8"></rect><rect transform="translate(470)" fill="#40372F" rx="2" width="2" height="17" x="834" y="8"></rect><rect transform="translate(470)" fill="#40372F" rx="2" width="2" height="17" x="917.5" y="8"></rect><rect transform="translate(470)" fill="#40372F" rx="2" width="2" height="17" x="1001" y="8"></rect><rect transform="translate(470)" fill="#40372F" rx="2" width="2" height="17" x="1084.5" y="8"></rect> <!----> <!----> <!----> <!----></g> <g id="tasks" transform="translate(47, 222)" class="gantt-row"><g id="row_j-I5t8qP" class="list-complete-item"><!----> <text id="task_label_j-I5t8qP" font-size="15" name="Label" fill="#000000" dy=".38em" text-anchor="start" x="0" y="15" style="white-space:pre;">Project Proposal Part B Development</text> <!----> <g><!----> <linearGradient id="task_colorj-I5t8qP" x1="0%" y1="0%" x2="100%" y2="0%"><stop offset="0%" stop-color="#4A4A4A" style="stop-opacity:1;"></stop> <stop offset="0%" stop-color="#9C9C9C" style="stop-opacity:1;"></stop></linearGradient> <g transform="translate(470,4)"><path stroke-width="0" stroke="#9C9C9C" d="M6,0 h48 a6,6 0 0 1 6,6 v10 a6,6 0 0 1 -6,6 h-48 a6,6 0 0 1 -6,-6 v-10 a6,6 0 0 1 6,-6 z" style="fill:url(#task_colorj-I5t8qP);"></path></g> <!----> <!----></g></g><g id="row_RU1xmfuW" class="list-complete-item"><!----> <text id="task_label_RU1xmfuW" font-size="15" name="Label" fill="#000000" dy=".38em" text-anchor="start" x="0" y="45" style="white-space:pre;">Project Presentation Development</text> <!----> <g><!----> <linearGradient id="task_colorRU1xmfuW" x1="0%" y1="0%" x2="100%" y2="0%"><stop offset="0%" stop-color="#4A4A4A" style="stop-opacity:1;"></stop> <stop offset="0%" stop-color="#9C9C9C" style="stop-opacity:1;"></stop></linearGradient> <g transform="translate(518,34)"><path stroke-width="0" stroke="#9C9C9C" d="M6,0 h83 a6,6 0 0 1 6,6 v10 a6,6 0 0 1 -6,6 h-83 a6,6 0 0 1 -6,-6 v-10 a6,6 0 0 1 6,-6 z" style="fill:url(#task_colorRU1xmfuW);"></path></g> <!----> <!----></g></g><g id="row_PVj45RYllYc" class="list-complete-item"><!----> <text id="task_label_PVj45RYllYc" font-size="15" name="Label" fill="#000000" dy=".38em" text-anchor="start" x="0" y="75" style="white-space:pre;">Final Proposal Development + Submission</text> <!----> <g><!----> <linearGradient id="task_colorPVj45RYllYc" x1="0%" y1="0%" x2="100%" y2="0%"><stop offset="0%" stop-color="#4A4A4A" style="stop-opacity:1;"></stop> <stop offset="0%" stop-color="#9C9C9C" style="stop-opacity:1;"></stop></linearGradient> <g transform="translate(577,64)"><path stroke-width="0" stroke="#9C9C9C" d="M6,0 h107 a6,6 0 0 1 6,6 v10 a6,6 0 0 1 -6,6 h-107 a6,6 0 0 1 -6,-6 v-10 a6,6 0 0 1 6,-6 z" style="fill:url(#task_colorPVj45RYllYc);"></path></g> <!----> <!----></g></g><g id="row_yyvpDq8S2" class="list-complete-item"><!----> <text id="task_label_yyvpDq8S2" font-size="15" name="Label" fill="#000000" dy=".38em" text-anchor="start" x="0" y="105" style="white-space:pre;">End of Semester</text> <!----> <g><!----> <linearGradient id="task_coloryyvpDq8S2" x1="0%" y1="0%" x2="100%" y2="0%"><stop offset="0%" stop-color="#4A4A4A" style="stop-opacity:1;"></stop> <stop offset="0%" stop-color="#9C9C9C" style="stop-opacity:1;"></stop></linearGradient> <g transform="translate(685,94)"><path stroke-width="0" stroke="#9C9C9C" d="M6,0 h0 a6,6 0 0 1 6,6 v10 a6,6 0 0 1 -6,6 h-0 a6,6 0 0 1 -6,-6 v-10 a6,6 0 0 1 6,-6 z" style="fill:url(#task_coloryyvpDq8S2);"></path></g> <!----> <!----></g></g><g id="row_sGh-V5AF" class="list-complete-item"><!----> <text id="task_label_sGh-V5AF" font-size="15" name="Label" fill="#000000" dy=".38em" text-anchor="start" x="0" y="135" style="white-space:pre;">Software Setup + Data Organization</text> <!----> <g><!----> <linearGradient id="task_colorsGh-V5AF" x1="0%" y1="0%" x2="100%" y2="0%"><stop offset="0%" stop-color="#4A4A4A" style="stop-opacity:1;"></stop> <stop offset="0%" stop-color="#9C9C9C" style="stop-opacity:1;"></stop></linearGradient> <g transform="translate(756,124)"><path stroke-width="0" stroke="#9C9C9C" d="M6,0 h83 a6,6 0 0 1 6,6 v10 a6,6 0 0 1 -6,6 h-83 a6,6 0 0 1 -6,-6 v-10 a6,6 0 0 1 6,-6 z" style="fill:url(#task_colorsGh-V5AF);"></path></g> <!----> <!----></g></g><g id="row_YXYUo2J8U" class="list-complete-item"><!----> <text id="task_label_YXYUo2J8U" font-size="15" name="Label" fill="#000000" dy=".38em" text-anchor="start" x="0" y="165" style="white-space:pre;">Data Preprocessing / Software Learning +Preperation</text> <!----> <g><!----> <linearGradient id="task_colorYXYUo2J8U" x1="0%" y1="0%" x2="100%" y2="0%"><stop offset="0%" stop-color="#4A4A4A" style="stop-opacity:1;"></stop> <stop offset="0%" stop-color="#9C9C9C" style="stop-opacity:1;"></stop></linearGradient> <g transform="translate(852,154)"><path stroke-width="0" stroke="#9C9C9C" d="M6,0 h179 a6,6 0 0 1 6,6 v10 a6,6 0 0 1 -6,6 h-179 a6,6 0 0 1 -6,-6 v-10 a6,6 0 0 1 6,-6 z" style="fill:url(#task_colorYXYUo2J8U);"></path></g> <!----> <!----></g></g><g id="row_GjQojpFEE" class="list-complete-item"><!----> <text id="task_label_GjQojpFEE" font-size="15" name="Label" fill="#000000" dy=".38em" text-anchor="start" x="0" y="195" style="white-space:pre;">Early Customization + QGIS Tool Development - Not successful</text> <!----> <g><!----> <linearGradient id="task_colorGjQojpFEE" x1="0%" y1="0%" x2="100%" y2="0%"><stop offset="0%" stop-color="#4A4A4A" style="stop-opacity:1;"></stop> <stop offset="0%" stop-color="#9C9C9C" style="stop-opacity:1;"></stop></linearGradient> <g transform="translate(947,184)"><path stroke-width="0" stroke="#9C9C9C" d="M6,0 h95 a6,6 0 0 1 6,6 v10 a6,6 0 0 1 -6,6 h-95 a6,6 0 0 1 -6,-6 v-10 a6,6 0 0 1 6,-6 z" style="fill:url(#task_colorGjQojpFEE);"></path></g> <!----> <!----></g></g><g id="row_XR7Z0v1gg" class="list-complete-item"><!----> <text id="task_label_XR7Z0v1gg" font-size="15" name="Label" fill="#000000" dy=".38em" text-anchor="start" x="0" y="225" style="white-space:pre;">Presentation Update + Development</text> <!----> <g><!----> <linearGradient id="task_colorXR7Z0v1gg" x1="0%" y1="0%" x2="100%" y2="0%"><stop offset="0%" stop-color="#4A4A4A" style="stop-opacity:1;"></stop> <stop offset="0%" stop-color="#9C9C9C" style="stop-opacity:1;"></stop></linearGradient> <g transform="translate(1043,214)"><path stroke-width="0" stroke="#9C9C9C" d="M6,0 h107 a6,6 0 0 1 6,6 v10 a6,6 0 0 1 -6,6 h-107 a6,6 0 0 1 -6,-6 v-10 a6,6 0 0 1 6,-6 z" style="fill:url(#task_colorXR7Z0v1gg);"></path></g> <!----> <!----></g></g><g id="row_5e1T_XqVL" class="list-complete-item"><!----> <text id="task_label_5e1T_XqVL" font-size="15" name="Label" fill="#000000" dy=".38em" text-anchor="start" x="0" y="255" style="white-space:pre;">Updating of CCTV + PACP + Development of Static Cart Output</text> <!----> <g><!----> <linearGradient id="task_color5e1T_XqVL" x1="0%" y1="0%" x2="100%" y2="0%"><stop offset="0%" stop-color="#4A4A4A" style="stop-opacity:1;"></stop> <stop offset="0%" stop-color="#9C9C9C" style="stop-opacity:1;"></stop></linearGradient> <g transform="translate(1269,244)"><path stroke-width="0" stroke="#9C9C9C" d="M6,0 h60 a6,6 0 0 1 6,6 v10 a6,6 0 0 1 -6,6 h-60 a6,6 0 0 1 -6,-6 v-10 a6,6 0 0 1 6,-6 z" style="fill:url(#task_color5e1T_XqVL);"></path></g> <!----> <!----></g></g><g id="row_fbQuLZv4Q" class="list-complete-item"><!----> <text id="task_label_fbQuLZv4Q" font-size="15" name="Label" fill="#000000" dy=".38em" text-anchor="start" x="0" y="285" style="white-space:pre;">Compilation of Data Layers Into One Model </text> <!----> <g><!----> <linearGradient id="task_colorfbQuLZv4Q" x1="0%" y1="0%" x2="100%" y2="0%"><stop offset="0%" stop-color="#4A4A4A" style="stop-opacity:1;"></stop> <stop offset="0%" stop-color="#9C9C9C" style="stop-opacity:1;"></stop></linearGradient> <g transform="translate(1210,274)"><path stroke-width="0" stroke="#9C9C9C" d="M6,0 h48 a6,6 0 0 1 6,6 v10 a6,6 0 0 1 -6,6 h-48 a6,6 0 0 1 -6,-6 v-10 a6,6 0 0 1 6,-6 z" style="fill:url(#task_colorfbQuLZv4Q);"></path></g> <!----> <!----></g></g><g id="row_xjZfC4DPA" class="list-complete-item"><!----> <text id="task_label_xjZfC4DPA" font-size="15" name="Label" fill="#000000" dy=".38em" text-anchor="start" x="0" y="315" style="white-space:pre;">Web applications development and Finalization </text> <!----> <g><!----> <linearGradient id="task_colorxjZfC4DPA" x1="0%" y1="0%" x2="100%" y2="0%"><stop offset="0%" stop-color="#4A4A4A" style="stop-opacity:1;"></stop> <stop offset="0%" stop-color="#9C9C9C" style="stop-opacity:1;"></stop></linearGradient> <g transform="translate(1269,304)"><path stroke-width="0" stroke="#9C9C9C" d="M6,0 h72 a6,6 0 0 1 6,6 v10 a6,6 0 0 1 -6,6 h-72 a6,6 0 0 1 -6,-6 v-10 a6,6 0 0 1 6,-6 z" style="fill:url(#task_colorxjZfC4DPA);"></path></g> <!----> <!----></g></g><g id="row_rNfogSlg3" class="list-complete-item"><!----> <text id="task_label_rNfogSlg3" font-size="15" name="Label" fill="#000000" dy=".38em" text-anchor="start" x="0" y="345" style="white-space:pre;">Static Cartographic Outputs </text> <!----> <g><!----> <linearGradient id="task_colorrNfogSlg3" x1="0%" y1="0%" x2="100%" y2="0%"><stop offset="0%" stop-color="#4A4A4A" style="stop-opacity:1;"></stop> <stop offset="0%" stop-color="#9C9C9C" style="stop-opacity:1;"></stop></linearGradient> <g transform="translate(1257,334)"><path stroke-width="0" stroke="#9C9C9C" d="M6,0 h72 a6,6 0 0 1 6,6 v10 a6,6 0 0 1 -6,6 h-72 a6,6 0 0 1 -6,-6 v-10 a6,6 0 0 1 6,-6 z" style="fill:url(#task_colorrNfogSlg3);"></path></g> <!----> <!----></g></g><g id="row_4Vi2dR2zS" class="list-complete-item"><!----> <text id="task_label_4Vi2dR2zS" font-size="15" name="Label" fill="#000000" dy=".38em" text-anchor="start" x="0" y="375" style="white-space:pre;">Final Report Development</text> <!----> <g><!----> <linearGradient id="task_color4Vi2dR2zS" x1="0%" y1="0%" x2="100%" y2="0%"><stop offset="0%" stop-color="#4A4A4A" style="stop-opacity:1;"></stop> <stop offset="0%" stop-color="#9C9C9C" style="stop-opacity:1;"></stop></linearGradient> <g transform="translate(1198,364)"><path stroke-width="0" stroke="#9C9C9C" d="M6,0 h179 a6,6 0 0 1 6,6 v10 a6,6 0 0 1 -6,6 h-179 a6,6 0 0 1 -6,-6 v-10 a6,6 0 0 1 6,-6 z" style="fill:url(#task_color4Vi2dR2zS);"></path></g> <!----> <!----></g></g><g id="row_KirSsq5Q" class="list-complete-item"><!----> <text id="task_label_KirSsq5Q" font-size="15" name="Label" fill="#000000" dy=".38em" text-anchor="start" x="0" y="405" style="white-space:pre;">Defense Preperation</text> <!----> <g><!----> <linearGradient id="task_colorKirSsq5Q" x1="0%" y1="0%" x2="100%" y2="0%"><stop offset="0%" stop-color="#4A4A4A" style="stop-opacity:1;"></stop> <stop offset="0%" stop-color="#9C9C9C" style="stop-opacity:1;"></stop></linearGradient> <g transform="translate(1317,394)"><path stroke-width="0" stroke="#9C9C9C" d="M6,0 h155 a6,6 0 0 1 6,6 v10 a6,6 0 0 1 -6,6 h-155 a6,6 0 0 1 -6,-6 v-10 a6,6 0 0 1 6,-6 z" style="fill:url(#task_colorKirSsq5Q);"></path></g> <!----> <!----></g></g><g id="row_I98nvdtiV" class="list-complete-item"><!----> <text id="task_label_I98nvdtiV" font-size="15" name="Label" fill="#000000" dy=".38em" text-anchor="start" x="0" y="435" style="white-space:pre;">Open House Preparation</text> <!----> <g><!----> <linearGradient id="task_colorI98nvdtiV" x1="0%" y1="0%" x2="100%" y2="0%"><stop offset="0%" stop-color="#4A4A4A" style="stop-opacity:1;"></stop> <stop offset="0%" stop-color="#9C9C9C" style="stop-opacity:1;"></stop></linearGradient> <g transform="translate(1329,424)"><path stroke-width="0" stroke="#9C9C9C" d="M6,0 h143 a6,6 0 0 1 6,6 v10 a6,6 0 0 1 -6,6 h-143 a6,6 0 0 1 -6,-6 v-10 a6,6 0 0 1 6,-6 z" style="fill:url(#task_colorI98nvdtiV);"></path></g> <!----> <!----></g></g><g id="row_aLLW9rVfI" class="list-complete-item"><!----> <text id="task_label_aLLW9rVfI" font-size="15" name="Label" fill="#000000" dy=".38em" text-anchor="start" x="0" y="465" style="white-space:pre;">Project Archiving </text> <!----> <g><!----> <linearGradient id="task_coloraLLW9rVfI" x1="0%" y1="0%" x2="100%" y2="0%"><stop offset="0%" stop-color="#4A4A4A" style="stop-opacity:1;"></stop> <stop offset="0%" stop-color="#9C9C9C" style="stop-opacity:1;"></stop></linearGradient> <g transform="translate(1460,454)"><path stroke-width="0" stroke="#9C9C9C" d="M6,0 h48 a6,6 0 0 1 6,6 v10 a6,6 0 0 1 -6,6 h-48 a6,6 0 0 1 -6,-6 v-10 a6,6 0 0 1 6,-6 z" style="fill:url(#task_coloraLLW9rVfI);"></path></g> <!----> <!----></g></g></g> <g id="vertical_markers" transform="translate(47, 108)"> </g> <g id="horizontal_markers" transform="translate(0, 222)"> </g> <!----> <!----> <text id="ganttWatermark" font-size="16" x="1513.5375" y="710" fill="#9e9e9e" font-weight="400" style="cursor:pointer">Made with www.gantt.io</text> <!----></svg>